<?xml version="1.0" encoding="utf-8"?>
<!-- Generator: Adobe Illustrator 23.0.3, SVG Export Plug-In . SVG Version: 6.00 Build 0)  -->
<svg version="1.1" id="Icons" xmlns="http://www.w3.org/2000/svg" xmlns:xlink="http://www.w3.org/1999/xlink" x="0px" y="0px"
	 viewBox="0 0 32 32" style="enable-background:new 0 0 32 32;" xml:space="preserve">
<path d="M23,12.1V10c0-3.9-3.1-7-7-7s-7,3.1-7,7v2.1C6.2,12.6,4,15,4,18c0,3.3,2.7,6,6,6h5v6c0,0.6,0.4,1,1,1s1-0.4,1-1v-6h5
	c3.3,0,6-2.7,6-6C28,15,25.8,12.6,23,12.1z M22.8,17.6c-1.3,2-3.5,3.2-5.9,3.4c0,0.1,0,0.2,0,0.3V23c0,0.6-0.4,1-1,1s-1-0.4-1-1
	v-1.7c0-1.1-0.5-2.1-1.5-2.7C13,18.2,12.4,18,11.7,18H10c-0.6,0-1-0.4-1-1s0.4-1,1-1h1.7c1,0,2.1,0.3,2.9,0.9
	c0.1,0.1,0.2,0.2,0.4,0.3V9c0-0.6,0.4-1,1-1s1,0.4,1,1v10c1.7-0.2,3.2-1.1,4.2-2.5c0.3-0.5,0.9-0.6,1.4-0.3
	C23,16.5,23.1,17.1,22.8,17.6z"/>
</svg>
